<svg height="15" viewBox="0 0 15 15" width="15" xmlns="http://www.w3.org/2000/svg"><g fill="#757c92" transform="translate(.361983 -.000002)"><path d="m7.26240689.00000093c-2.93613648-.00147898-5.58398494 1.76606808-6.70862131 4.47827985-1.12463638 2.71221176-.50453018 5.83483762 1.57110868 7.91152322 2.07563885 2.0766856 5.1979517 2.698366 7.91073014 1.5750971 2.7127784-1.1232688 4.4816605-3.7702258 4.4816605-6.70636266-.0040293-4.00568093-3.2491996-7.25248773-7.25487801-7.25853751zm0 13.78170927c-2.6405213.0014787-5.02179401-1.5881897-6.03296142-4.02743039-1.0111674-2.43924074-.45299214-5.24743331 1.41413867-7.11456412 1.86713081-1.8671308 4.67532338-2.42530607 7.11456412-1.41413866 2.43924074 1.0111674 4.02890904 3.39244012 4.02743044 6.03296141-.0040335 3.60097606-2.9221957 6.51913826-6.52317181 6.52317176z"/><path d="m9.97704103 4.54024576c-.06869509-.06926073-.16220578-.1082189-.25975609-.1082189-.09755032 0-.191061.03895817-.2597561.1082189l-2.19512195 2.19512195-2.19512195-2.19512195c-.14345934-.14345933-.37605286-.14345933-.51951219 0s-.14345934.37605286-.00000001.51951219l2.19512195 2.19512195-2.19512195 2.19512196c-.14185009.14269663-.14185009.37315702 0 .51585365.0686951.06926069.16220578.10821889.2597561.10821889s.191061-.0389582.2597561-.10821889l2.19512195-2.19512195 2.19512195 2.19512195c.06904347.06848289.1625111.10665979.2597561.10609759.09724499.0005622.19071262-.0376147.25975609-.10609759.14185007-.14269663.14185007-.37315702 0-.51585365l-2.19512195-2.19512196 2.19512195-2.19512195c.06926077-.06869509.10821887-.16220578.10821887-.25975609 0-.09755032-.0389581-.191061-.10821887-.2597561z"/></g></svg>