<svg width="54" height="33" viewBox="0 0 54 33" fill="none" xmlns="http://www.w3.org/2000/svg">
<path d="M54 21.8332C54 15.667 49.12 10.6665 43.1024 10.6665C42.8037 10.6665 42.5102 10.6824 42.2193 10.7064C39.9286 4.45234 34.0435 0 27.1402 0C18.2476 0 11.0379 7.38774 11.0379 16.5C11.0379 25.0241 17.3464 32.0366 25.4391 32.9069V33H43.1127C49.1251 32.9947 54 27.9968 54 21.8332Z" fill="#0BE8E6"/>
<path d="M11.0379 33C17.134 33 22.0758 27.9361 22.0758 21.6895C22.0758 15.4429 17.134 10.379 11.0379 10.379C4.94184 10.379 0 15.4429 0 21.6895C0 27.9361 4.94184 33 11.0379 33Z" fill="#FF0040"/>
<path d="M22.0758 21.6896C22.0758 15.8321 17.7308 11.0151 12.1651 10.4376C11.4405 12.3138 11.0379 14.3577 11.0379 16.5C11.0379 22.2431 13.9026 27.2969 18.2476 30.2509C20.5902 28.1778 22.0758 25.112 22.0758 21.6896Z" fill="#0B0038"/>
</svg>
