<svg height="11" viewBox="0 0 18 11" width="18" xmlns="http://www.w3.org/2000/svg"><path d="m12.5475 0c-1.2269545 0-2.4172938.41804739-3.375 1.185-1.86091076-1.4824331-4.47080669-1.5786545-6.43582549-.23727542-1.9650188 1.34137909-2.82612248 3.80700595-2.12342298 6.08006779s2.80504815 3.82256033 5.18424847 3.82095883c1.22766332.000331 2.41853479-.4191204 3.375-1.1887512 1.8598766 1.4789692 4.4663375 1.5736571 6.4286262.23354001 1.9622887-1.34011707 2.8225396-3.80234625 2.1217396-6.07289028s-2.7991314-3.81961125-5.1753658-3.82064973zm-3.375 8.6475c-1.72958707-1.80215448-1.72958707-4.64784552 0-6.45 1.7295871 1.80215448 1.7295871 4.64784552 0 6.45zm-8.04753913-3.225c-.00578896-1.77786217.99942971-3.40447293 2.5921467-4.19446055 1.59271698-.78998763 3.49599645-.60599195 4.90789243.47446055-1.98523813 2.08415474-1.98523813 5.35959526 0 7.44375-1.41243287 1.0808717-3.31657279 1.2645686-4.90958279.47363918-1.59301-.79092947-2.59768128-2.41885115-2.59045634-4.19738918zm11.42253913 4.6762541c-1.0111281-.0056755-1.9929935-.33998359-2.7975-.9525041 1.9852381-2.08415474 1.9852381-5.35959526 0-7.44375 1.623097-1.23021562 3.8560579-1.26740525 5.5192214-.09192181s2.3733562 3.29282226 1.7553871 5.23343774-2.4217272 3.25741247-4.4583585 3.25473817z" fill="#a9acd3"/></svg>