<svg height="23" viewBox="0 0 19 23" width="19" xmlns="http://www.w3.org/2000/svg"><g fill="#fff" fill-rule="evenodd"><path d="m9.4844 1.9746-5.719 5.719c-1.528 1.528-2.37 3.559-2.37 5.719 0 2.161.842 4.191 2.369 5.719 3.155 3.154 8.285 3.154 11.44.001 1.527-1.528 2.369-3.559 2.369-5.72 0-2.16-.842-4.191-2.369-5.719zm0 20.918c-2.429 0-4.857-.924-6.706-2.773-1.792-1.791-2.778-4.173-2.778-6.707 0-2.533.986-4.915 2.778-6.706l6.706-6.707 6.707 6.707c1.791 1.791 2.777 4.173 2.777 6.706 0 2.534-.986 4.916-2.778 6.707-1.849 1.849-4.277 2.773-6.706 2.773z"/><path d="m8.6484 13.4131c0 .588.478 1.065 1.065 1.065.588 0 1.065-.477 1.065-1.065s-.477-1.065-1.065-1.065c-.587 0-1.065.477-1.065 1.065"/></g></svg>