<svg width="14" height="15" viewBox="0 0 14 15" fill="none" xmlns="http://www.w3.org/2000/svg">
<path fill-rule="evenodd" clip-rule="evenodd" d="M5.125 4.25C6.2986 4.25 7.25 3.29861 7.25 2.125C7.25 0.951395 6.2986 0 5.125 0C4.07935 0 3.2101 0.755246 3.03298 1.75H0.625C0.279822 1.75 0 2.02982 0 2.375C0 2.72018 0.279822 3 0.625 3H3.18793C3.52143 3.73713 4.26332 4.25 5.125 4.25ZM0 12.375C0 12.0298 0.279822 11.75 0.625 11.75H3.03298C3.2101 10.7552 4.07935 10 5.125 10C6.2986 10 7.25 10.9514 7.25 12.125C7.25 13.2986 6.2986 14.25 5.125 14.25C4.26332 14.25 3.52143 13.7371 3.18793 13H0.625C0.279822 13 0 12.7202 0 12.375ZM0.625 6.75C0.279822 6.75 0 7.02982 0 7.375C0 7.72018 0.279822 8 0.625 8H6.18793C6.52143 8.73713 7.26332 9.25 8.125 9.25C9.2986 9.25 10.25 8.2986 10.25 7.125C10.25 5.9514 9.2986 5 8.125 5C7.07935 5 6.2101 5.75525 6.03298 6.75H0.625ZM8.375 2.375C8.375 2.02982 8.65482 1.75 9 1.75H13.375C13.7202 1.75 14 2.02982 14 2.375C14 2.72018 13.7202 3 13.375 3H9C8.65482 3 8.375 2.72018 8.375 2.375ZM9 11.75C8.65482 11.75 8.375 12.0298 8.375 12.375C8.375 12.7202 8.65482 13 9 13H13.375C13.7202 13 14 12.7202 14 12.375C14 12.0298 13.7202 11.75 13.375 11.75H9ZM11.375 7.375C11.375 7.02982 11.6548 6.75 12 6.75H13.375C13.7202 6.75 14 7.02982 14 7.375C14 7.72018 13.7202 8 13.375 8H12C11.6548 8 11.375 7.72018 11.375 7.375Z" fill="#6A7186"/>
</svg>
