<svg width="12" height="15" viewBox="0 0 12 15" fill="none" xmlns="http://www.w3.org/2000/svg">
<path fill-rule="evenodd" clip-rule="evenodd" d="M3.75 4C3.75 2.75736 4.75736 1.75 6 1.75C7.24264 1.75 8.25 2.75736 8.25 4V5H3.75V4ZM2.25 5V4C2.25 1.92893 3.92893 0.25 6 0.25C8.07107 0.25 9.75 1.92893 9.75 4V5H10.5C11.3284 5 12 5.67157 12 6.5V13.5C12 14.3284 11.3284 15 10.5 15H1.5C0.671573 15 0 14.3284 0 13.5V6.5C0 5.67157 0.671573 5 1.5 5H2.25ZM7 10C7 10.5523 6.55228 11 6 11C5.44772 11 5 10.5523 5 10C5 9.44772 5.44772 9 6 9C6.55228 9 7 9.44772 7 10Z" fill="#6A7186"/>
</svg>
