<svg height="9" viewBox="0 0 10 9" width="10" xmlns="http://www.w3.org/2000/svg"><path d="m9.38 1.89c-.22294324-.7038762-.7205202-1.28798828-1.38-1.62-.65596458-.32264141-1.41634535-.35885002-2.1-.1-.43842582.15230866-.83078208.4138795-1.14.76-.30668379-.3467444-.69509984-.61141728-1.13-.77-.69020932-.25176507-1.45351163-.20913714-2.11139593.11791454s-1.15265586.90984553-1.36860407 1.61208546c-.28351315.96630862-.1493225 2.00719284.37 2.87.67 1.29 1.82 2.24 3.77 3.88.12923858.10667518.292458.16344715.46.16.19794242-.00095919.38918728-.07179062.54-.2 1.9-1.6 3.05-2.6 3.71-3.84.51802024-.86298266.65558267-1.901941.38-2.87zm-1.25 2.4c-.57 1.08-1.55 1.93-3.37 3.44-1.76-1.5-2.76-2.35-3.36-3.44-.38119874-.6301544-.48950756-1.38831613-.3-2.1.15099026-.43575238.46698107-.79483285.88-1 .21829969-.11861835.46163368-.1837359.71-.19.20522499-.00240133.40897393.03495264.6.11.44186858.15013003.80546971.47053102 1.01.89l.13.3h.66l.13-.3c.1926737-.43331877.55386181-.76922371 1-.93.41890738-.17612367.89109262-.17612367 1.31 0 .41301893.20516715.72900974.56424762.88 1 .225552.74623667.12378058 1.55313861-.28 2.22z" fill="#0e1c2a"/></svg>