<svg height="15" viewBox="0 0 15 15" width="15" xmlns="http://www.w3.org/2000/svg"><path d="m9.55 14.2357143c-.17873729-.0005616-.34677906-.0852441-.45357143-.2285714l-1.03571428-1.3892858c-.48705889.0660169-.98079826.0660169-1.46785715 0l-1.07142857 1.3821429c-.16952516.2180861-.47262533.2802216-.71428571.1464286l-2.30714286-1.3607143c-.24760122-.1444677-.348699-.4508246-.23571429-.7142857l.68571429-1.6c-.29202032-.3911734-.53211504-.81854197-.71428571-1.2714286l-1.71785715-.21785714c-.29043856-.02731874-.51366936-.26902381-.51785714-.56071429v-2.67857143c.00132165-.28499837.21369041-.52486811.49642857-.56071428l1.725-.18214286c.09404541-.2460873.20625955-.4848408.33571429-.71428571.12336884-.20893689.26058009-.40938464.41071428-.6l-.66428571-1.575c-.11176594-.26523539-.00741702-.57214397.24285714-.71428572l2.325-1.32142857c.24334746-.13224095.54679296-.06700017.71428572.15357143l1.02142857 1.36071428c.4999693-.06961519 1.00717356-.06961519 1.50714285 0l1.05-1.34642857c.17238537-.2265911.48721971-.28802219.73214286-.14285714l2.31428573 1.35c.2476012.14446773.348699.45082463.2357143.71428571l-.6607143 1.55714286c.3071482.4009999.5582644.84195509.7464286 1.31071429l1.6892857.21785714c.2813215.03748194.4917732.27690885.4928571.56071429v2.68214285c-.0015358.28423894-.2142476.52296588-.4964286.55714286l-1.7178571.20357143c-.0920189.22497462-.1994157.44334795-.3214286.65357143-.1293174.21927844-.2737127.42930794-.4321428.62857144l.65 1.6071428c.1141004.2642762.0109879.5720749-.2392857.7142858l-2.32857147 1.3285714c-.08695589.0405235-.18295046.0577533-.27857143.05zm-1.175-2.3892857 1.21428571 1.6285714 2.09999999-1.2-.7821428-1.8642857.1428571-.1678572c.185315-.2173418.3514146-.45035925.4964286-.69642853.1415972-.23862453.2611398-.48966394.3571428-.75l.0785715-.20357143 2-.23571428v-2.41428572l-1.9892858-.25714285-.0714285-.20714286c-.1930084-.53738472-.4809065-1.03576291-.85-1.47142857l-.1392857-.16785715.8035714-1.83928571-2.09285716-1.21785714-1.20357143 1.59285714-.225-.03928571c-.56089491-.10179598-1.13553366-.10179598-1.69642857 0l-.21785714.03571428-1.18928571-1.61071428-2.09642858 1.19642857.77857143 1.86071428-.13928571.16785715c-.17816946.20568967-.33940949.42545387-.48214286.65714285-.14080669.24773958-.260285.50700751-.35714286.775l-.075.20714286-2.025.25357143v2.41428571l2.01428572.25714286.075.20714286c.19223269.52017819.47250956 1.00341416.82857143 1.42857144l.13928571.1678571-.80714286 1.8821429 2.08571429 1.2178571 1.23571429-1.625.21785714.0392857c.54817825.0963638 1.10896461.0963638 1.65714286 0zm-1.02142857-2.91785717h-.05c-.7370134-.01854449-1.39016361-.47954763-1.65450527-1.16777444s-.08773609-1.46793159.44736241-1.9750827c.4644709-.48744522 1.15996035-.67890163 1.80846026-.49783832.64849991.18106332 1.14421881.70510902 1.28900293 1.36266024.14478411.65755123-.08498558 1.34133996-.59746319 1.77803522-.33512919.31942868-.77988463.49835328-1.24285714.5zm0-2.93214286c-.58929979.02378513-1.0572572.50399739-1.06580383 1.09371506-.00854664.58971767.44529796 1.08328938 1.03366097 1.12414208.29405749.00779169.57919727-.10138345.79285714-.30357142.44286083-.4225199.46042996-1.12368792.03928572-1.56785715-.2102668-.21768711-.50093602-.33912225-.80357143-.33571428z" fill="#757c92"/></svg>