<svg width="15" height="15" viewBox="0 0 15 15" fill="none" xmlns="http://www.w3.org/2000/svg">
<path fill-rule="evenodd" clip-rule="evenodd" d="M7.25003 0L10.6591 4.54545H8V10.2273C8 10.6415 7.66421 10.9773 7.25 10.9773C6.83579 10.9773 6.5 10.6415 6.5 10.2273V4.54545H3.84094L7.25003 0ZM1.75 10.7955C1.75 10.3813 1.41421 10.0455 1 10.0455C0.585786 10.0455 0.25 10.3813 0.25 10.7955V12.6364C0.25 13.6029 1.0335 14.3864 2 14.3864H12.5C13.4665 14.3864 14.25 13.6029 14.25 12.6364V10.7955C14.25 10.3813 13.9142 10.0455 13.5 10.0455C13.0858 10.0455 12.75 10.3813 12.75 10.7955V12.6364C12.75 12.7745 12.6381 12.8864 12.5 12.8864H2C1.86193 12.8864 1.75 12.7745 1.75 12.6364V10.7955Z" fill="#6A7186"/>
</svg>
