<?xml version="1.0" encoding="UTF-8"?>
<svg width="512px" height="396px" viewBox="0 0 512 396" version="1.1" xmlns="http://www.w3.org/2000/svg" xmlns:xlink="http://www.w3.org/1999/xlink">
    <title>swach</title>
    <g id="Page-1" stroke="none" stroke-width="1" fill="none" fill-rule="evenodd">
        <g id="swach">
            <path d="M354.59,157.05 L238.45,40.91 C212.254811,14.7141082 176.726089,-0.0026496255 139.68,-0.0026496255 C102.633911,-0.0026496255 67.105189,14.7141082 40.91,40.91 L40.91,40.91 C14.7141082,67.105189 -0.0026496255,102.633911 -0.0026496255,139.68 C-0.0026496255,176.726089 14.7141082,212.254811 40.91,238.45 L157.05,354.59 C183.245189,380.785892 218.773911,395.50265 255.82,395.50265 C292.866089,395.50265 328.394811,380.785892 354.59,354.59 L354.59,354.59 C380.785892,328.394811 395.50265,292.866089 395.50265,255.82 C395.50265,218.773911 380.785892,183.245189 354.59,157.05 Z M281.06,281.05 C267.430126,294.677694 245.333683,294.676516 231.705262,281.047369 C218.076842,267.418222 218.076842,245.321778 231.705262,231.692631 C245.333683,218.063484 267.430126,218.062306 281.06,231.69 C287.609287,238.235586 291.288949,247.115527 291.288949,256.375 C291.288949,265.634473 287.609287,274.514414 281.06,281.06 L281.06,281.05 Z" id="Shape" fill="#FF0040" fill-rule="nonzero"></path>
            <path d="M470.73,40.91 L470.73,40.91 C444.534811,14.7141082 409.006089,-0.0026496255 371.96,-0.0026496255 C334.913911,-0.0026496255 299.385189,14.7141082 273.19,40.91 L157.05,157.05 C130.854108,183.245189 116.13735,218.773911 116.13735,255.82 C116.13735,292.866089 130.854108,328.394811 157.05,354.59 L157.05,354.59 C183.245189,380.785892 218.773911,395.50265 255.82,395.50265 C292.866089,395.50265 328.394811,380.785892 354.59,354.59 L470.73,238.45 C496.925892,212.254811 511.64265,176.726089 511.64265,139.68 C511.64265,102.633911 496.925892,67.105189 470.73,40.91 Z M281.06,281.06 C267.430126,294.687694 245.333683,294.686516 231.705262,281.057369 C218.076842,267.428222 218.076842,245.331778 231.705262,231.702631 C245.333683,218.073484 267.430126,218.072306 281.06,231.7 C287.606227,238.24518 291.283947,247.122977 291.283947,256.38 C291.283947,265.637023 287.606227,274.51482 281.06,281.06 Z" id="Shape" fill="#0BE8E6" fill-rule="nonzero"></path>
            <path d="M354.59,157 L255.82,58.25 L157.05,157 C130.854108,183.195189 116.13735,218.723911 116.13735,255.77 C116.13735,292.816089 130.854108,328.344811 157.05,354.54 L157.05,354.54 C183.245189,380.735892 218.773911,395.45265 255.82,395.45265 C292.866089,395.45265 328.394811,380.735892 354.59,354.54 L354.59,354.54 C380.785892,328.344811 395.50265,292.816089 395.50265,255.77 C395.50265,218.723911 380.785892,183.195189 354.59,157 Z" id="Shape" fill="#0B0038" fill-rule="nonzero"></path>
            <circle id="Oval" fill="#FFFFFF" cx="256" cy="256" r="35"></circle>
        </g>
    </g>
</svg>