<svg width="16" height="16" viewBox="0 0 16 16" fill="none" xmlns="http://www.w3.org/2000/svg">
<path fill-rule="evenodd" clip-rule="evenodd" d="M9.75 4C9.75 2.75736 10.7574 1.75 12 1.75C13.2426 1.75 14.25 2.75736 14.25 4V5H15.75V4C15.75 1.92893 14.0711 0.25 12 0.25C9.92893 0.25 8.25 1.92893 8.25 4V6H1.5C0.671573 6 0 6.67157 0 7.5V14.5C0 15.3284 0.671573 16 1.5 16H10.5C11.3284 16 12 15.3284 12 14.5V7.5C12 6.67157 11.3284 6 10.5 6H9.75V4ZM7 11C7 11.5523 6.55228 12 6 12C5.44772 12 5 11.5523 5 11C5 10.4477 5.44772 10 6 10C6.55228 10 7 10.4477 7 11Z" fill="#6A7186"/>
</svg>
