<svg height="60" viewBox="0 0 60 60" width="60" xmlns="http://www.w3.org/2000/svg"><g style="stroke:#000;stroke-width:2;fill:none;fill-rule:evenodd;stroke-linecap:round;stroke-linejoin:round" transform="translate(1 1)"><rect height="58" rx="4" width="52"/><path d="m47 0h7c2.209139 0 4 1.790861 4 4v50c0 2.209139-1.790861 4-4 4h-8"/><path d="m18.8108 45.8885c-.725455-.1869177-1.3971855-.5407953-1.9616-1.0334l-9.4892-7.9834c-.2074514-.173521-.33620168-.4233375-.3571475-.6929797-.02094582-.2696421.06768124-.5363445.2458475-.7398203l4.0913-4.6849c.3692332-.4204536 1.0067074-.4689537 1.4353-.1092l5.596 4.7083c.2113785.1773551.4851147.2624154.7597833.2360935.2746687-.0263219.5272684-.1618216.7011167-.3760935l18.4155-22.8325c.3526764-.4344586.9878379-.5075688 1.43-.1646l4.9312 3.832c.214063.1652373.3525044.4097683.3840437.6783416.0315393.2685732-.0464851.5385244-.2164437.7488584l-21.7542 26.9723c-.7104001.8766298-1.7444612 1.4295352-2.868 1.5335-.4498636.0439281-.9039017.0126675-1.3435-.0925z"/></g></svg>