<svg width="16" height="16" viewBox="0 0 16 16" fill="none" xmlns="http://www.w3.org/2000/svg">
<path fill-rule="evenodd" clip-rule="evenodd" d="M13.8788 5.86664L10.1393 9.60611L6.39396 5.86076L10.1334 2.12129L13.8788 5.86664ZM5.42749 15.4844C5.33075 15.4371 5.24006 15.3733 5.15965 15.2929L0.7072 10.8404C0.316676 10.4499 0.316675 9.81672 0.7072 9.4262L9.42632 0.707078C9.81684 0.316554 10.45 0.316554 10.8405 0.707078L15.293 5.15953C15.6835 5.55006 15.6835 6.18322 15.293 6.57374L7.61676 14.25H15.0001C15.4143 14.25 15.7501 14.5858 15.7501 15C15.7501 15.4142 15.4143 15.75 15.0001 15.75H6.00006C5.77052 15.75 5.56507 15.6469 5.42749 15.4844Z" fill="#6A7186"/>
</svg>
