<svg height="60" viewBox="0 0 60 60" width="60" xmlns="http://www.w3.org/2000/svg"><g style="stroke:#000;stroke-width:2;fill:none;fill-rule:evenodd;stroke-linecap:round;stroke-linejoin:round" transform="translate(1 1)"><rect height="58" rx="4" width="52"/><path d="m47 0h7c2.209139 0 4 1.790861 4 4v50c0 2.209139-1.790861 4-4 4h-8"/><path d="m43.7778 43.2222-3.5556 3.5556c-.4909272.4909228-1.2868728.4909228-1.7778 0l-11.5555-11.5556c-.4909272-.4909228-1.2868728-.4909228-1.7778 0l-11.5555 11.5556c-.4909272.4909228-1.2868728.4909228-1.7778 0l-3.5556-3.5556c-.49092284-.4909272-.49092284-1.2868728 0-1.7778l11.5556-11.5555c.4909228-.4909272.4909228-1.2868728 0-1.7778l-11.5556-11.5555c-.49092284-.4909272-.49092284-1.2868728 0-1.7778l3.5556-3.5556c.4909272-.4909228 1.2868728-.4909228 1.7778 0l11.5555 11.5556c.4909272.4909228 1.2868728.4909228 1.7778 0l11.5555-11.5556c.4909272-.4909228 1.2868728-.4909228 1.7778 0l3.5556 3.5556c.4909228.4909272.4909228 1.2868728 0 1.7778l-11.5556 11.5555c-.4909228.4909272-.4909228 1.2868728 0 1.7778l11.5556 11.5555c.4909228.4909272.4909228 1.2868728 0 1.7778z"/></g></svg>