<svg width="19" height="11" viewBox="0 0 19 11" fill="none" xmlns="http://www.w3.org/2000/svg">
<path fill-rule="evenodd" clip-rule="evenodd" d="M10.2623 8.25327C10.7314 7.44356 11 6.50314 11 5.5C11 4.49686 10.7314 3.55644 10.2623 2.74673C11.0419 1.83091 12.2031 1.25 13.5 1.25C15.8472 1.25 17.75 3.15279 17.75 5.5C17.75 7.84721 15.8472 9.75 13.5 9.75C12.2031 9.75 11.0419 9.16909 10.2623 8.25327ZM9.5 1.72506C8.49723 0.66289 7.07603 0 5.5 0C2.46243 0 0 2.46243 0 5.5C0 8.53757 2.46243 11 5.5 11C7.07603 11 8.49723 10.3371 9.5 9.27494C10.5028 10.3371 11.924 11 13.5 11C16.5376 11 19 8.53757 19 5.5C19 2.46243 16.5376 0 13.5 0C11.924 0 10.5028 0.66289 9.5 1.72506Z" fill="#6A7186"/>
</svg>
