<?xml version="1.0" encoding="UTF-8"?>
<svg width="18px" height="11px" viewBox="0 0 18 11" version="1.1" xmlns="http://www.w3.org/2000/svg" xmlns:xlink="http://www.w3.org/1999/xlink">
    <!-- Generator: Sketch 63.1 (92452) - https://sketch.com -->
    <desc>Created with Sketch.</desc>
    <g id="Page-1" stroke="none" stroke-width="1" fill="none" fill-rule="evenodd">
        <g id="Home-dark-Copy" transform="translate(-28.000000, -97.000000)" fill="#A9ACD3" fill-rule="nonzero">
            <g id="conrast" transform="translate(28.000000, 97.000000)">
                <path d="M12.5475,-6.66133815e-16 C11.3205455,-6.66133815e-16 10.1302062,0.418047385 9.1725,1.185 C7.31158924,-0.297433098 4.70169331,-0.393654499 2.73667451,0.947724583 C0.771655706,2.28910367 -0.0894479709,4.75473053 0.613251532,7.02779237 C1.31595103,9.30085421 3.41829968,10.8503527 5.7975,10.8487512 C7.02516332,10.8490822 8.21603479,10.4296308 9.1725,9.66 C11.0323766,11.1389692 13.6388375,11.2336571 15.6011262,9.89354001 C17.5634149,8.55342294 18.4236658,6.09119376 17.7228658,3.82064973 C17.0220658,1.5501057 14.9237344,0.00103848206 12.5475,-6.66133815e-16 L12.5475,-6.66133815e-16 Z M9.1725,8.6475 C7.44291293,6.84534552 7.44291293,3.99965448 9.1725,2.1975 C10.9020871,3.99965448 10.9020871,6.84534552 9.1725,8.6475 L9.1725,8.6475 Z M1.12496087,5.4225 C1.11917191,3.64463783 2.12439058,2.01802707 3.71710757,1.22803945 C5.30982455,0.43805182 7.21310402,0.622047505 8.625,1.7025 C6.63976187,3.78665474 6.63976187,7.06209526 8.625,9.14625 C7.21256713,10.2271217 5.30842721,10.4108186 3.71541721,9.61988918 C2.12240721,8.82895971 1.11773593,7.20103803 1.12496087,5.4225 Z M12.5475,10.0987541 C11.5363719,10.0930786 10.5545065,9.75877051 9.75,9.14625 C11.7352381,7.06209526 11.7352381,3.78665474 9.75,1.7025 C11.373097,0.472284377 13.6060579,0.435094745 15.2692214,1.61057819 C16.9323849,2.78606163 17.6425776,4.90340045 17.0246085,6.84401593 C16.4066394,8.78463141 14.6028813,10.1014284 12.56625,10.0987541 L12.5475,10.0987541 Z" id="Shape"></path>
            </g>
        </g>
    </g>
</svg>