<svg height="60" viewBox="0 0 55 60" width="55" xmlns="http://www.w3.org/2000/svg"><g fill="none" fill-rule="evenodd" stroke="#000" stroke-width="2" transform="translate(1)"><path d="m1.964 57.965c-1.38-1.381-1.38-3.62 0-5.001l2.5-2.499 2.501 2.499c1.38 1.381 1.38 3.62 0 5.001-1.381 1.38-3.62 1.38-5.001 0z" stroke-linecap="round" stroke-linejoin="round"/><path d="m48.056 13.056 3.361-3.36c1.843-1.844 2.159-4.837.51-6.857-1.892-2.318-5.351-2.445-7.415-.381l-3.527 3.527c-1.546 1.547-4.054 1.547-5.6 0l-.582-.581c-.475-.476-1.246-.476-1.721 0l-3.936 3.935c-.475.475-.475 1.246 0 1.722l13.835 13.834c.476.476 1.246.476 1.721 0l3.936-3.935c.475-.475.475-1.246 0-1.721l-.582-.582c-1.546-1.547-1.546-4.054 0-5.601zm-7.75 9.165-8.485-8.486-16.971 16.971c-1.45 1.45-2.521 3.234-3.121 5.195l-.023.077c-.6 1.961-1.671 3.745-3.121 5.195l-3.706 3.706 4.242 4.242 3.668-3.667c1.474-1.475 3.293-2.558 5.292-3.151 2-.593 3.819-1.676 5.293-3.15zm-24.75 7.779-.706.706c-1.45 1.45-2.521 3.234-3.121 5.195l-.023.077c-.6 1.961-1.671 3.745-3.121 5.195l-3.706 3.706 4.242 4.242 3.668-3.667c1.474-1.475 3.293-2.558 5.292-3.151s3.819-1.676 5.293-3.15l9.153-9.153z"/></g></svg>