<svg xmlns="http://www.w3.org/2000/svg" xmlns:xlink="http://www.w3.org/1999/xlink" x="0px" y="0px" width="64px" height="64px" viewBox="0 0 64 64"><g transform="translate(0, 0)"><path data-color="color-2" fill="#444444" d="M12.688,50.274c-0.386-0.366-0.99-0.366-1.376,0C10.592,50.957,7,55.062,7,58
	c0,2.757,2.243,5,5,5s5-2.243,5-5C17,55.062,13.408,50.957,12.688,50.274z"></path>
<path fill="#444444" d="M36.172,14.414L15.293,35.293c-0.14,0.14-0.235,0.317-0.273,0.511l-2,10
	c-0.066,0.328,0.037,0.667,0.273,0.903C13.482,46.896,13.737,47,14,47c0.065,0,0.131-0.006,0.196-0.02l10-2
	c0.193-0.039,0.371-0.134,0.511-0.273l20.879-20.879L36.172,14.414z"></path>
<path data-color="color-2" fill="#444444" d="M57.707,22.293L52.414,17l3.293-3.293c2.596-2.595,2.596-6.819,0-9.414
	C54.45,3.036,52.778,2.343,51,2.343s-3.45,0.692-4.707,1.95L43,7.586l-5.293-5.293c-0.391-0.391-1.023-0.391-1.414,0l-4,4
	c-0.391,0.391-0.391,1.023,0,1.414l20,20C52.488,27.902,52.744,28,53,28s0.512-0.098,0.707-0.293l4-4
	C58.098,23.316,58.098,22.684,57.707,22.293z"></path></g></svg>