<svg xmlns="http://www.w3.org/2000/svg" xmlns:xlink="http://www.w3.org/1999/xlink" x="0px" y="0px" width="64px" height="64px" viewBox="0 0 64 64"><g stroke-width="4" transform="translate(0, 0)"><line data-cap="butt" data-color="color-2" fill="none" stroke="#444444" stroke-width="4" stroke-miterlimit="10" x1="19" y1="32" x2="35" y2="32" stroke-linejoin="miter" stroke-linecap="butt"></line>
<path data-color="color-2" fill="none" stroke="#444444" stroke-width="4" stroke-linecap="square" stroke-miterlimit="10" d="M15,58
	c0,2.209-1.791,4-4,4s-4-1.791-4-4c0-2.875,4-7,4-7S15,55,15,58z" stroke-linejoin="miter"></path>
<path fill="none" stroke="#444444" stroke-width="4" stroke-linecap="square" stroke-miterlimit="10" d="M50,17l5.343-5.343
	c2.209-2.209,2.209-5.791,0-8c-2.208-2.208-5.789-2.211-8,0L42,9l-6-6l-5,5l20,20l5-5L50,17z" stroke-linejoin="miter"></path>
<polyline fill="none" stroke="#444444" stroke-width="4" stroke-linecap="square" stroke-miterlimit="10" points="37,14 15,36 
	14,45 23,44 45,22 " stroke-linejoin="miter"></polyline></g></svg>