<svg width="18" height="14" viewBox="0 0 18 14" fill="none" xmlns="http://www.w3.org/2000/svg">
<path d="M12 3.75H10.5V6H8.25V7.5H10.5V9.75H12V7.5H14.25V6H12V3.75ZM1.5 6.75C1.5 4.6575 2.73 2.85 4.5075 2.01V0.39C1.89 1.32 0 3.8175 0 6.75C0 9.6825 1.89 12.18 4.5075 13.11V11.49C2.73 10.65 1.5 8.8425 1.5 6.75ZM11.25 0C7.53 0 4.5 3.03 4.5 6.75C4.5 10.47 7.53 13.5 11.25 13.5C14.97 13.5 18 10.47 18 6.75C18 3.03 14.97 0 11.25 0ZM11.25 12C8.355 12 6 9.645 6 6.75C6 3.855 8.355 1.5 11.25 1.5C14.145 1.5 16.5 3.855 16.5 6.75C16.5 9.645 14.145 12 11.25 12Z" fill="#6A7186"/>
</svg>
