<svg height="58" viewBox="0 0 58 58" width="58" xmlns="http://www.w3.org/2000/svg"><g fill="none"><circle cx="29" cy="29" fill="#2c2f38" r="29"/><path d="m29-.00003716v11.00003716c-4.77469-.0029723-9.3545549 1.8930126-12.73 5.27l-7.78-7.78c5.4343395-5.44677457 12.8158953-8.5023284 20.51-8.49003716z" fill="#f0c419"/><path d="m49.51 8.49-7.78 7.78c-3.3754451-3.3769874-7.95531-5.2729723-12.73-5.27v-11.00003716c7.6941047-.01229124 15.0756605 3.04326259 20.51 8.49003716z" fill="#4fba6f"/><path d="m58.0000372 29h-11.0000372c.0029723-4.77469-1.8930126-9.3545549-5.27-12.73l7.78-7.78c5.4467746 5.4343395 8.5023284 12.8158953 8.4900372 20.51z" fill="#2fa8cc"/><path d="m58.0000372 29c.0122912 7.6941047-3.0432626 15.0756605-8.4900372 20.51l-7.78-7.78c3.3769874-3.3754451 5.2729723-7.95531 5.27-12.73z" fill="#285680"/><path d="m49.51 49.51c-5.4343395 5.4467746-12.8158953 8.5023284-20.51 8.4900372v-11.0000372c4.77469.0029723 9.3545549-1.8930126 12.73-5.27z" fill="#3d324c"/><path d="m29 47v11.0000372c-7.6941047.0122912-15.0756605-3.0432626-20.51-8.4900372l7.78-7.78c3.3754451 3.3769874 7.95531 5.2729723 12.73 5.27z" fill="#802d40"/><path d="m16.27 41.73-7.78 7.78c-5.44677457-5.4343395-8.5023284-12.8158953-8.49003716-20.51h11.00003716c-.0029723 4.77469 1.8930126 9.3545549 5.27 12.73z" fill="#cc4b4c"/><path d="m16.27 16.27c-3.3769874 3.3754451-5.2729723 7.95531-5.27 12.73h-11.00003716c-.01229124-7.6941047 3.04326259-15.0756605 8.49003716-20.51z" fill="#e57e25"/><path d="m35 29c.0043026 2.8675823-2.0182062 5.3386264-4.8300602 5.9012311-2.8118539.5626046-5.6294271-.9400206-6.7287953-3.5884986-1.0993683-2.6484781-.1741524-5.7047138 2.2095568-7.298758s5.5616041-1.2816582 7.5892987.7460255c1.1308021 1.1206101 1.7648139 2.6480021 1.76 4.24z" fill="#4482c3"/><g fill="#e6e7e8"><path d="m20.877 6.354c-.4879002-.00100711-.9038501-.35395843-.9842611-.83518773-.0804111-.4812293.1981934-.95023727.6592611-1.10981227 1.0411133-.35807742 2.1039195-.64966444 3.182-.873.3538169-.08116522.7238327.0357833.9667331.30554914s.3205344.64997844.2028329.99337407c-.1177015.34339564-.4122519.59603914-.769566.66007679-.9949813.20408512-1.9759643.47129193-2.937.8-.1027301.03700548-.2108275.05693594-.32.059z"/><path d="m11.5 12.163c-.4062194-.0000592-.772039-.2458481-.9256248-.621914-.1535859-.376066-.0644159-.8076732.2256248-1.092086 1.7432067-1.71068749 3.717375-3.16884558 5.865-4.332.3143937-.1698798.6955353-.15912816.9998524.0282049.3043171.18733305.4855766.52278717.4755.88000002-.0100767.35721285-.2099587.6819153-.5243524.85179508-1.9832329 1.07392892-3.8062751 2.4203412-5.416 4-.1865439.1838289-.4381005.2866078-.7.286z"/><path d="m4 30c-.55228475 0-1-.4477153-1-1-.00669288-3.5502106.72087601-7.0634458 2.137-10.319.14290624-.3276125.44973626-.5540995.80491016-.5941453.35517391-.0400458.70473233.1124333.917.4s.25499608.6665328.11208984.9941453c-1.30608209 3.0032303-1.97712774 6.2440641-1.971 9.519 0 .5522847-.44771525 1-1 1z"/></g><path d="m47.0000035 29h-12.0000035c.0048139-1.5919979-.6291979-3.1193899-1.76-4.24l8.49-8.49c3.3769874 3.3754451 5.2729723 7.95531 5.2700035 12.73z" fill="#9fc9d3"/><path d="m24.76 24.76c-1.1308021 1.1206101-1.7648139 2.6480021-1.76 4.24h-12.0000035c-.0029688-4.77469 1.8930161-9.3545549 5.2700035-12.73z" fill="#f29c1f"/><path d="m35 29c.0043026 2.8675823-2.0182062 5.3386264-4.8300602 5.9012311-2.8118539.5626046-5.6294271-.9400206-6.7287953-3.5884986-1.0993683-2.6484781-.1741524-5.7047138 2.2095568-7.298758s5.5616041-1.2816582 7.5892987.7460255c1.1308021 1.1206101 1.7648139 2.6480021 1.76 4.24z" fill="#4482c3"/><path d="m29 10.9999965v12.0000035c-1.5919979-.0048139-3.1193899.6291979-4.24 1.76l-8.49-8.49c3.3754451-3.3769874 7.95531-5.2729723 12.73-5.2700035z" fill="#f3d55b"/><path d="m24.76 33.24-8.49 8.49c-3.3769874-3.3754451-5.2729723-7.95531-5.2700035-12.73h12.0000035c-.0048139 1.5919979.6291979 3.1193899 1.76 4.24z" fill="#fb7b76"/><path d="m29 35v12.0000035c-4.77469.0029688-9.3545549-1.8930161-12.73-5.2700035l8.49-8.49c1.1206101 1.1308021 2.6480021 1.7648139 4.24 1.76z" fill="#d75e72"/><path d="m41.73 41.73c-3.3754451 3.3769874-7.95531 5.2729723-12.73 5.2700035v-12.0000035c1.5919979.0048139 3.1193899-.6291979 4.24-1.76z" fill="#7d6599"/><path d="m47.0000035 29c.0029688 4.77469-1.8930161 9.3545549-5.2700035 12.73l-8.49-8.49c1.1308021-1.1206101 1.7648139-2.6480021 1.76-4.24z" fill="#4482c3"/><path d="m41.73 16.27-8.49 8.49c-1.1206101-1.1308021-2.6480021-1.7648139-4.24-1.76v-12.0000035c4.77469-.0029688 9.3545549 1.8930161 12.73 5.2700035z" fill="#7ed09e"/><path d="m35 29c.0043026 2.8675823-2.0182062 5.3386264-4.8300602 5.9012311-2.8118539.5626046-5.6294271-.9400206-6.7287953-3.5884986-1.0993683-2.6484781-.1741524-5.7047138 2.2095568-7.298758s5.5616041-1.2816582 7.5892987.7460255c1.1308021 1.1206101 1.7648139 2.6480021 1.76 4.24z" fill="#2c2f38"/></g></svg>