<?xml version="1.0" encoding="UTF-8"?>
<svg width="8px" height="9px" viewBox="0 0 8 9" version="1.1" xmlns="http://www.w3.org/2000/svg" xmlns:xlink="http://www.w3.org/1999/xlink">
    <!-- Generator: Sketch 63.1 (92452) - https://sketch.com -->
    <title>filter</title>
    <desc>Created with Sketch.</desc>
    <g id="App" stroke="none" stroke-width="1" fill="none" fill-rule="evenodd">
        <g id="Icons" transform="translate(-82.000000, -44.000000)" fill="#0E1C2A" fill-rule="nonzero">
            <g id="filter" transform="translate(82.000000, 44.000000)">
                <path d="M1.73,-6.21334725e-05 C0.87208473,-0.00723900304 0.140024965,0.618853238 0.0141116262,1.46750914 C-0.111801713,2.31616505 0.406940048,3.12783615 1.23,3.37 L1.23,7.88 C1.23,8.15614237 1.45385763,8.38 1.73,8.38 C2.00614237,8.38 2.23,8.15614237 2.23,7.88 L2.23,3.37 C3.05305995,3.12783615 3.57180171,2.31616505 3.44588837,1.46750914 C3.31997503,0.618853238 2.58791527,-0.00723900304 1.73,-6.21334725e-05 Z M1.73,2.45 C1.33070531,2.45003747 1.00546979,2.12925723 1,1.73 C1,1.32683213 1.32683213,1 1.73,1 C2.12925723,1.00546979 2.45003747,1.33070531 2.45,1.73 C2.45,1.92095587 2.37414307,2.10409069 2.23911688,2.23911688 C2.10409069,2.37414307 1.92095587,2.45 1.73,2.45 Z" id="Shape"></path>
                <path d="M6.74,5 L6.74,0.5 C6.74,0.223857625 6.51614237,0 6.24,0 C5.96385763,0 5.74,0.223857625 5.74,0.5 L5.74,5 C4.91303613,5.2480971 4.39306684,6.06506589 4.51844442,6.91929179 C4.64382201,7.77351768 5.37662209,8.40661333 6.24,8.40661333 C7.10337791,8.40661333 7.83617799,7.77351768 7.96155558,6.91929179 C8.08693316,6.06506589 7.56696387,5.2480971 6.74,5 Z M6.25,7.38 C5.85074277,7.37453021 5.52996253,7.04929469 5.53,6.65 C5.53,6.25235498 5.85235498,5.93 6.25,5.93 C6.44532685,5.92462922 6.63465343,5.99779027 6.775613,6.13311145 C6.91657258,6.26843264 6.9973971,6.45461666 7.00000005,6.65 C7.000074,6.84712361 6.92042417,7.03589845 6.779166,7.17338973 C6.63790783,7.31088101 6.44704962,7.38540066 6.25,7.38 Z" id="Shape"></path>
            </g>
        </g>
    </g>
</svg>