<svg height="9" viewBox="0 0 8 9" width="8" xmlns="http://www.w3.org/2000/svg"><g fill="#0e1c2a"><path d="m1.73-.00006213c-.85791527-.00717687-1.58997503.61891537-1.71588837 1.46757127-.12591334.84865591.39282842 1.66032701 1.21588837 1.90249086v4.51c0 .27614237.22385763.5.5.5s.5-.22385763.5-.5v-4.51c.82305995-.24216385 1.34180171-1.05383495 1.21588837-1.90249086-.12591334-.8486559-.8579731-1.47474814-1.71588837-1.46757127zm0 2.45006213c-.39929469.00003747-.72453021-.32074277-.73-.72 0-.40316787.32683213-.73.73-.73.39925723.00546979.72003747.33070531.72.73 0 .19095587-.07585693.37409069-.21088312.50911688s-.31816101.21088312-.50911688.21088312z"/><path d="m6.74 5v-4.5c0-.27614237-.22385763-.5-.5-.5s-.5.22385763-.5.5v4.5c-.82696387.2480971-1.34693316 1.06506589-1.22155558 1.91929179.12537759.85422589.85817767 1.48732154 1.72155558 1.48732154s1.59617799-.63309565 1.72155558-1.48732154c.12537758-.8542259-.39459171-1.67119469-1.22155558-1.91929179zm-.49 2.38c-.39925723-.00546979-.72003747-.33070531-.72-.73 0-.39764502.32235498-.72.72-.72.19532685-.00537078.38465343.06779027.525613.20311145.14095958.13532119.2217841.32150521.22438705.51688855.00007395.19712361-.07957588.38589845-.22083405.52338973s-.33211638.21201093-.529166.20661027z"/></g></svg>