<svg xmlns="http://www.w3.org/2000/svg" xmlns:xlink="http://www.w3.org/1999/xlink" x="0px" y="0px" width="16px" height="16px" viewBox="0 0 16 16"><g transform="translate(0, 0)"><circle data-color="color-2" fill="none" stroke="#444444" stroke-linecap="round" stroke-linejoin="round" stroke-miterlimit="10" cx="8" cy="8" r="2.5"></circle>
<path fill="none" stroke="#444444" stroke-linecap="round" stroke-linejoin="round" stroke-miterlimit="10" d="M13.5,8
	c0-0.465-0.064-0.913-0.172-1.344l1.917-1.107l-1.5-2.598L11.83,4.057c-0.644-0.626-1.441-1.093-2.33-1.344V0.5h-3v2.212
	C5.612,2.964,4.815,3.431,4.17,4.057L2.255,2.951l-1.5,2.598l1.917,1.107C2.564,7.087,2.5,7.535,2.5,8
	c0,0.464,0.064,0.913,0.172,1.344l-1.917,1.107l1.5,2.598l1.916-1.106c0.644,0.626,1.441,1.093,2.33,1.344V15.5h3v-2.212
	c0.889-0.252,1.685-0.719,2.33-1.344l1.916,1.106l1.5-2.598l-1.917-1.107C13.436,8.913,13.5,8.464,13.5,8z"></path>
</g></svg>