<svg height="60" viewBox="0 0 58 60" width="58" xmlns="http://www.w3.org/2000/svg"><g style="stroke:#000;stroke-width:2;fill:none;fill-rule:evenodd;stroke-linecap:round;stroke-linejoin:round" transform="translate(1 1)"><path d="m55.25 37.8-5.273-3.043c-.3757535-.2197202-.5662182-.6572634-.471-1.082.658669-3.0818663.658669-6.2681337 0-9.35-.0952182-.4247366.0952465-.8622798.471-1.082l5.273-3.043c.2297442-.133628.3968418-.3532172.4643886-.6102702.0675467-.257053.0299853-.5304211-.1043886-.7597298l-5-8.66c-.2746085-.47613642-.8820208-.6413883-1.36-.37l-5.283 3.052c-.3788834.2150083-.8533634.1599961-1.173-.136-2.3275603-2.1230308-5.0865765-3.71778858-8.088-4.675-.4165429-.12810754-.7021574-.51121938-.706-.947v-6.094c0-.55228475-.4477153-1-1-1h-10c-.5522847 0-1 .44771525-1 1v6.094c-.0038426.43578062-.2894571.81889246-.706.947-3.0014235.95721142-5.7604397 2.5519692-8.088 4.675-.3196366.2959961-.7941166.3510083-1.173.136l-5.283-3.052c-.47797918-.2713883-1.08539152-.10613642-1.36.37l-5 8.66c-.13437394.2293087-.17193534.5026768-.10438856.7597298.06754677.257053.23464441.4766422.46438856.6102702l5.273 3.043c.37575349.2197202.56621822.6572634.471 1.082-.65866901 3.0818663-.65866901 6.2681337 0 9.35.09521822.4247366-.09524651.8622798-.471 1.082l-5.273 3.043c-.22974415.133628-.39684179.3532172-.46438856.6102702-.06754678.257053-.02998538.5304211.10438856.7597298l5 8.66c.27460848.4761364.88202082.6413883 1.36.37l5.283-3.052c.3788834-.2150083.8533634-.1599961 1.173.136 2.3275603 2.1230308 5.0865765 3.7177886 8.088 4.675.4165429.1281075.7021574.5112194.706.947v6.094c0 .5522847.4477153 1 1 1h10c.5522847 0 1-.4477153 1-1v-6.094c.0038426-.4357806.2894571-.8188925.706-.947 3.0014235-.9572114 5.7604397-2.5519692 8.088-4.675.3196366-.2959961.7941166-.3510083 1.173-.136l5.283 3.052c.4779792.2713883 1.0853915.1061364 1.36-.37l5-8.66c.1343739-.2293087.1719353-.5026768.1043886-.7597298-.0675468-.257053-.2346444-.4766422-.4643886-.6102702z"/><circle cx="28" cy="29" r="7"/><path d="m25 13.274c-6.4448898 1.2411785-11.4848215 6.2811102-12.726 12.726"/><path d="m31 44.726c6.4448898-1.2411785 11.4848215-6.2811102 12.726-12.726"/></g></svg>