<svg height="12" viewBox="0 0 10 12" width="10" xmlns="http://www.w3.org/2000/svg"><g fill="#0e1c2a"><path d="m8.56 4.13h-1.37v-1.75c0-1.3144377-1.0655623-2.38-2.38-2.38s-2.38 1.0655623-2.38 2.38v1.75h-1.43c-.55228475 0-1 .44771525-1 1v5.63c0 .5522847.44771525 1 1 1h7.6c.55228475 0 1-.4477153 1-1v-5.67c-.01039903-.26528998-.12586681-.51555567-.32095251-.69563478s-.45377449-.27518871-.71904749-.26436522zm-5.13-1.75c0-.49302652.2630265-.94860182.68999999-1.19511508s.95302653-.24651326 1.38000002 0 .68999999.70208856.68999999 1.19511508v1.75h-2.76zm-2.43 8.31v-5.56h7.57v5.6z"/><path d="m8.56 4.13h-1.37v-1.75c0-1.3144377-1.0655623-2.38-2.38-2.38s-2.38 1.0655623-2.38 2.38v1.75h-1.43c-.55228475 0-1 .44771525-1 1v5.63c0 .5522847.44771525 1 1 1h7.6c.55228475 0 1-.4477153 1-1v-5.67c-.01039903-.26528998-.12586681-.51555567-.32095251-.69563478s-.45377449-.27518871-.71904749-.26436522zm-5.13-1.75c0-.49302652.2630265-.94860182.68999999-1.19511508s.95302653-.24651326 1.38000002 0 .68999999.70208856.68999999 1.19511508v1.75h-2.76zm-2.43 8.31v-5.56h7.57v5.6z"/></g></svg>