<?xml version="1.0" encoding="UTF-8"?>
<svg width="10px" height="12px" viewBox="0 0 10 12" version="1.1" xmlns="http://www.w3.org/2000/svg" xmlns:xlink="http://www.w3.org/1999/xlink">
    <!-- Generator: Sketch 63.1 (92452) - https://sketch.com -->
    <desc>Created with Sketch.</desc>
    <g id="Page-1" stroke="none" stroke-width="1" fill="none" fill-rule="evenodd">
        <g id="Icons" transform="translate(-40.000000, -42.000000)" fill="#0E1C2A" fill-rule="nonzero">
            <g id="lock" transform="translate(40.000000, 42.000000)">
                <path d="M8.56,4.13 L7.19,4.13 L7.19,2.38 C7.19,1.0655623 6.1244377,0 4.81,0 C3.4955623,0 2.43,1.0655623 2.43,2.38 L2.43,4.13 L1,4.13 C0.44771525,4.13 0,4.57771525 0,5.13 L0,10.76 C0,11.3122847 0.44771525,11.76 1,11.76 L8.6,11.76 C9.15228475,11.76 9.6,11.3122847 9.6,10.76 L9.6,5.09 C9.58960097,4.82471002 9.47413319,4.57444433 9.27904749,4.39436522 C9.08396179,4.21428611 8.825273,4.11917651 8.56,4.13 Z M3.43,2.38 C3.43,1.88697348 3.6930265,1.43139818 4.11999999,1.18488492 C4.54697348,0.938371655 5.07302652,0.938371655 5.50000001,1.18488492 C5.9269735,1.43139818 6.19,1.88697348 6.19,2.38 L6.19,4.13 L3.43,4.13 L3.43,2.38 Z M1,10.69 L1,5.13 L8.57,5.13 L8.57,10.73 L1,10.69 Z" id="Shape"></path>
                <path d="M8.56,4.13 L7.19,4.13 L7.19,2.38 C7.19,1.0655623 6.1244377,0 4.81,0 C3.4955623,0 2.43,1.0655623 2.43,2.38 L2.43,4.13 L1,4.13 C0.44771525,4.13 0,4.57771525 0,5.13 L0,10.76 C0,11.3122847 0.44771525,11.76 1,11.76 L8.6,11.76 C9.15228475,11.76 9.6,11.3122847 9.6,10.76 L9.6,5.09 C9.58960097,4.82471002 9.47413319,4.57444433 9.27904749,4.39436522 C9.08396179,4.21428611 8.825273,4.11917651 8.56,4.13 Z M3.43,2.38 C3.43,1.88697348 3.6930265,1.43139818 4.11999999,1.18488492 C4.54697348,0.938371655 5.07302652,0.938371655 5.50000001,1.18488492 C5.9269735,1.43139818 6.19,1.88697348 6.19,2.38 L6.19,4.13 L3.43,4.13 L3.43,2.38 Z M1,10.69 L1,5.13 L8.57,5.13 L8.57,10.73 L1,10.69 Z" id="Shape"></path>
            </g>
        </g>
    </g>
</svg>