<svg height="16" viewBox="0 0 15 16" width="15" xmlns="http://www.w3.org/2000/svg"><path d="m13.962766 5.46382979c-.8937603-.89537064-2.2243341-1.1938171-3.4148937-.76595745.4885689-1.35969596.0291998-2.87893063-1.13089598-3.74012193-1.16009575-.86119129-2.74726114-.86119129-3.90735689 0-1.16009575.8611913-1.61946485 2.38042597-1.13089603 3.74012193-1.22889538-.43980189-2.6016191-.10777851-3.49368256.84502384-.89206346.95280236-1.13307678 2.34439228-.61339657 3.54169844.51968022 1.19730618 1.70079167 1.97163528 3.0060153 1.97072448.3751633-.0016258.74737955-.0663591 1.10106383-.1914893-.49255694 1.3605897-.03367225 2.8831583 1.12869208 3.7449737s2.75257796.8585162 3.9113563-.0081148c1.15877832-.8666311 1.61134142-2.3910907 1.11314312-3.7496249 1.4398608.5161305 3.0452204-.0333252 3.866855-1.32348269.8216347-1.29015746.6406237-2.97726033-.4360039-4.06375132zm-8.36808515-3.73404256c.66702246-.66702245 1.63922887-.92752438 2.55039849-.68337721.91116963.24414716 1.62287412.95585165 1.86702126 1.86702127.2441472.91116963-.01635474 1.88337604-.6833772 2.5503985l-1.86702127 1.87659574-1.86702128-1.86702127c-.49756066-.49583602-.77723277-1.16936993-.77723277-1.87180852 0-.70243858.27967211-1.37597249.77723277-1.87180851zm-4.18404255 7.91808511c-1.03200869-1.03024607-1.03343756-2.70203387-.00319149-3.73404255 1.03024607-1.03200869 2.70203387-1.03343757 3.73404255-.00319149l1.87978724 1.87021276-1.86382979 1.86702128c-.49638166.49775376-1.17044371.77750446-1.87340426.77750446-.70296054 0-1.37702259-.2797507-1.87340425-.77750446zm7.9180851 4.18404256c-.66702245.6670225-1.63922887.9275244-2.55039849.6833772s-1.62287411-.9558516-1.86702128-1.8670213c-.24414716-.9111696.01635476-1.883376.68337722-2.5503985l1.86702128-1.86702124 1.86702127 1.86702124c1.0281676 1.0323517 1.0281676 2.701691 0 3.7340426zm4.1840426-4.18404256c-1.0319805 1.02605036-2.6988706 1.02605036-3.73085111 0l-1.86702127-1.86702128 1.86702127-1.86702127c1.03112741-1.03112736 2.70291521-1.03112734 3.73404251.00000003 1.0311274 1.03112736 1.0311274 2.70291514 0 3.73404252z" fill="#a9acd3"/></svg>