<svg height="19" viewBox="0 0 19 19" width="19" xmlns="http://www.w3.org/2000/svg"><path d="m22.95 13.5c0 5.2191169-4.2310012 9.45-9.45 9.45-5.21901056 0-9.45-4.2308831-9.45-9.45 0-5.21901056 4.23098944-9.45 9.45-9.45 5.2189988 0 9.45 4.23098944 9.45 9.45zm-7.2290029 3.1791694c.2612061.2612921.6968691.2612921.9579882 0 .2613804-.2612921.2613804-.6967789 0-.9581581l-2.2208186-2.2208783 2.2208186-2.2210263c.2613804-.2612224.2613804-.6967092 0-.9580449-.2611191-.2612311-.6967821-.2612311-.9579882 0l-2.2209929 2.2210264-2.2210363-2.2210264c-.2613369-.2612311-.6968256-.2612311-.9579447 0-.2613368.2613357-.2613368.6968225 0 .9580449l2.2208186 2.2210263-2.2208186 2.2208783c-.2613368.2613792-.2613368.696866 0 .9581581.2611191.2612921.6966078.2612921.9579447 0l2.2210363-2.2209828z" fill="#b6b6ca" transform="matrix(.70710678 -.70710678 .70710678 .70710678 -9.591883 9.5)"/></svg>