<svg width="18" height="14" viewBox="0 0 18 14" fill="none" xmlns="http://www.w3.org/2000/svg">
<path fill-rule="evenodd" clip-rule="evenodd" d="M9.33334 1.44371C8.95033 1.28599 8.76768 0.847648 8.9254 0.464634C9.08311 0.0816201 9.52145 -0.101023 9.90447 0.0566884L10.7614 0.409546C10.8806 0.458608 10.9922 0.519854 11.0951 0.591492C11.198 0.519854 11.3096 0.458608 11.4288 0.409547L12.2857 0.056689C12.6687 -0.101023 13.1071 0.0816213 13.2648 0.464636C13.4225 0.84765 13.2399 1.28599 12.8568 1.44371L12.7359 1.49349L12.7359 1.4935L11.9999 1.79656C11.9062 1.83514 11.8451 1.92643 11.8451 2.02773V3.21253L11.8451 3.21264L11.8452 3.22627L12.7359 1.4935L11.8452 3.22631L11.8452 11.414C11.8452 11.5153 11.9064 11.6066 12 11.6452L12.857 11.998C13.24 12.1557 13.4226 12.5941 13.2649 12.9771C13.1072 13.3601 12.6689 13.5428 12.2858 13.3851L11.4289 13.0322C11.3098 12.9831 11.1981 12.9219 11.0952 12.8503C10.9923 12.9219 10.8807 12.9831 10.7615 13.0322L9.90459 13.3851C9.52157 13.5428 9.08323 13.3601 8.92552 12.9771C8.7678 12.5941 8.95045 12.1557 9.33346 11.998L10.1904 11.6452C10.2841 11.6066 10.3452 11.5153 10.3452 11.414V11.0973L10.3451 11.0835L10.3451 2.02773C10.3451 1.92643 10.284 1.83514 10.1903 1.79656L9.33334 1.44371ZM0.25 4.77948C0.25 4.08912 0.809645 3.52948 1.5 3.52948H8C8.41421 3.52948 8.75 3.86527 8.75 4.27948C8.75 4.69369 8.41421 5.02948 8 5.02948H1.75V8.52948H8C8.41421 8.52948 8.75 8.86527 8.75 9.27948C8.75 9.69369 8.41421 10.0295 8 10.0295H1.5C0.809644 10.0295 0.25 9.46984 0.25 8.77948V4.77948ZM16.5 10.0295C17.1904 10.0295 17.75 9.46984 17.75 8.77948V4.77948C17.75 4.08913 17.1904 3.52948 16.5 3.52948L14 3.52948C13.5858 3.52948 13.25 3.86527 13.25 4.27948C13.25 4.69369 13.5858 5.02948 14 5.02948L16.25 5.02948V8.52948L14 8.52948C13.5858 8.52948 13.25 8.86527 13.25 9.27948C13.25 9.69369 13.5858 10.0295 14 10.0295L16.5 10.0295Z" fill="#6A7186"/>
</svg>
