<svg height="60" viewBox="0 0 60 60" width="60" xmlns="http://www.w3.org/2000/svg"><g fill="none" fill-rule="evenodd" stroke="#000" stroke-linejoin="round" stroke-width="2" transform="translate(1 1)"><path d="m0 0h58v58h-58z"/><path d="m9 6c0 1.657-1.343 3-3 3s-3-1.343-3-3 1.343-3 3-3 3 1.343 3 3z"/><path d="m18 6c0 1.657-1.343 3-3 3s-3-1.343-3-3 1.343-3 3-3 3 1.343 3 3z"/><path d="m27 6c0 1.657-1.343 3-3 3s-3-1.343-3-3 1.343-3 3-3 3 1.343 3 3z"/><path d="m0 0h58v12h-58z"/><g stroke-linecap="round"><path d="m43 23h8z"/><path d="m7 23h26z"/><path d="m43 23c0 2.761-2.239 5-5 5s-5-2.239-5-5 2.239-5 5-5 5 2.239 5 5z"/><path d="m15 47h-8z"/><path d="m51 47h-26z"/><path d="m15 47c0 2.761 2.239 5 5 5s5-2.239 5-5-2.239-5-5-5-5 2.239-5 5z"/><path d="m24 35h-17z"/><path d="m51 35h-17z"/><path d="m24 35c0 2.761 2.239 5 5 5s5-2.239 5-5-2.239-5-5-5-5 2.239-5 5z"/></g></g></svg>