<svg width="13" height="14" viewBox="0 0 13 14" fill="none" xmlns="http://www.w3.org/2000/svg">
<path fill-rule="evenodd" clip-rule="evenodd" d="M12.6347 1.50814C12.9119 1.20521 12.8857 0.732124 12.5762 0.451475C12.2667 0.170827 11.7911 0.188891 11.5139 0.491822L10.0808 2.05811C9.86869 2.01992 9.64954 2.00001 9.425 2.00001C8.294 2.00001 7.2085 2.52971 6.5 3.36677C5.7915 2.52971 4.706 2.00001 3.575 2.00001C1.573 2.00001 0 3.58257 0 5.59674C0 7.21755 0.950131 8.64156 2.54806 10.2909L1.15279 11.8159C0.875613 12.1188 0.901817 12.5919 1.21132 12.8725C1.52081 13.1532 1.99641 13.1351 2.27358 12.8322L12.6347 1.50814ZM4.58568 12.2478L12.4487 3.65396C12.7988 4.21125 13 4.87639 13 5.59674C13 8.06235 10.8013 10.0725 7.46816 13.1199L7.4425 13.1433L6.5 14L5.5575 13.1368L5.54926 13.1293L5.54856 13.1286C5.216 12.8252 4.89469 12.5321 4.58568 12.2478Z" fill="#6A7186"/>
</svg>
