<svg height="12" viewBox="0 0 10 12" width="10" xmlns="http://www.w3.org/2000/svg"><g fill="#0e1c2a"><path d="m9.2 2.14h-1.72v-1.27c0-.48048773-.38951227-.87-.87-.87h-3.43c-.22982941 0-.450103.09196277-.61167485.25541336-.16157185.1634506-.25099759.38477277-.24832515.61458664v1.27h-1.82c-.27614237 0-.5.22385763-.5.5s.22385763.5.5.5h.58v7.12c0 .5522847.44771525 1 1 1h5.6c.55228475 0 1-.4477153 1-1v-7.12h.52c.27614237 0 .5-.22385763.5-.5-.00532011-.27390845-.22609155-.49467989-.5-.5zm-5.88-1.14h3.16v1.14h-3.16zm4.33 9.23h-5.57v-7.09h5.53z"/><path d="m4.92 8.78c.27614237 0 .5-.22385763.5-.5v-3.2c0-.27614237-.22385763-.5-.5-.5s-.5.22385763-.5.5v3.2c0 .27614237.22385763.5.5.5z"/><path d="m9.2 2.14h-1.72v-1.27c0-.48048773-.38951227-.87-.87-.87h-3.43c-.22982941 0-.450103.09196277-.61167485.25541336-.16157185.1634506-.25099759.38477277-.24832515.61458664v1.27h-1.82c-.27614237 0-.5.22385763-.5.5s.22385763.5.5.5h.58v7.12c0 .5522847.44771525 1 1 1h5.6c.55228475 0 1-.4477153 1-1v-7.12h.52c.27614237 0 .5-.22385763.5-.5-.00532011-.27390845-.22609155-.49467989-.5-.5zm-5.88-1.14h3.16v1.14h-3.16zm4.33 9.23h-5.57v-7.09h5.53z"/><path d="m4.92 8.78c.27614237 0 .5-.22385763.5-.5v-3.2c0-.27614237-.22385763-.5-.5-.5s-.5.22385763-.5.5v3.2c0 .27614237.22385763.5.5.5z"/></g></svg>