<?xml version="1.0" encoding="UTF-8"?>
<svg width="10px" height="12px" viewBox="0 0 10 12" version="1.1" xmlns="http://www.w3.org/2000/svg" xmlns:xlink="http://www.w3.org/1999/xlink">
    <!-- Generator: Sketch 63.1 (92452) - https://sketch.com -->
    <desc>Created with Sketch.</desc>
    <g id="Page-1" stroke="none" stroke-width="1" fill="none" fill-rule="evenodd">
        <g id="Icons" transform="translate(-98.000000, -42.000000)" fill="#0E1C2A" fill-rule="nonzero">
            <g id="trash1" transform="translate(98.000000, 42.000000)">
                <path d="M9.2,2.14 L7.48,2.14 L7.48,0.87 C7.48,0.389512268 7.09048773,0 6.61,0 L3.18,0 C2.95017059,0 2.729897,0.0919627712 2.56832515,0.255413364 C2.4067533,0.418863956 2.31732756,0.640186125 2.32,0.87 L2.32,2.14 L0.5,2.14 C0.223857625,2.14 0,2.36385763 0,2.64 C0,2.91614237 0.223857625,3.14 0.5,3.14 L1.08,3.14 L1.08,10.26 C1.08,10.8122847 1.52771525,11.26 2.08,11.26 L7.68,11.26 C8.23228475,11.26 8.68,10.8122847 8.68,10.26 L8.68,3.14 L9.2,3.14 C9.47614237,3.14 9.7,2.91614237 9.7,2.64 C9.69467989,2.36609155 9.47390845,2.14532011 9.2,2.14 Z M3.32,1 L6.48,1 L6.48,2.14 L3.32,2.14 L3.32,1 Z M7.65,10.23 L2.08,10.23 L2.08,3.14 L7.61,3.14 L7.65,10.23 Z" id="Shape"></path>
                <path d="M4.92,8.78 C5.19614237,8.78 5.42,8.55614237 5.42,8.28 L5.42,5.08 C5.42,4.80385763 5.19614237,4.58 4.92,4.58 C4.64385763,4.58 4.42,4.80385763 4.42,5.08 L4.42,8.28 C4.42,8.55614237 4.64385763,8.78 4.92,8.78 L4.92,8.78 Z" id="Path"></path>
                <path d="M9.2,2.14 L7.48,2.14 L7.48,0.87 C7.48,0.389512268 7.09048773,0 6.61,0 L3.18,0 C2.95017059,0 2.729897,0.0919627712 2.56832515,0.255413364 C2.4067533,0.418863956 2.31732756,0.640186125 2.32,0.87 L2.32,2.14 L0.5,2.14 C0.223857625,2.14 0,2.36385763 0,2.64 C0,2.91614237 0.223857625,3.14 0.5,3.14 L1.08,3.14 L1.08,10.26 C1.08,10.8122847 1.52771525,11.26 2.08,11.26 L7.68,11.26 C8.23228475,11.26 8.68,10.8122847 8.68,10.26 L8.68,3.14 L9.2,3.14 C9.47614237,3.14 9.7,2.91614237 9.7,2.64 C9.69467989,2.36609155 9.47390845,2.14532011 9.2,2.14 Z M3.32,1 L6.48,1 L6.48,2.14 L3.32,2.14 L3.32,1 Z M7.65,10.23 L2.08,10.23 L2.08,3.14 L7.61,3.14 L7.65,10.23 Z" id="Shape"></path>
                <path d="M4.92,8.78 C5.19614237,8.78 5.42,8.55614237 5.42,8.28 L5.42,5.08 C5.42,4.80385763 5.19614237,4.58 4.92,4.58 C4.64385763,4.58 4.42,4.80385763 4.42,5.08 L4.42,8.28 C4.42,8.55614237 4.64385763,8.78 4.92,8.78 L4.92,8.78 Z" id="Path"></path>
            </g>
        </g>
    </g>
</svg>