<svg height="12" viewBox="0 0 10 12" width="10" xmlns="http://www.w3.org/2000/svg"><g fill="#0e1c2a"><path d="m8.56 4.13h-5.18c.030631-.06592123.04763742-.1373482.05-.21v-1.54c-.00000001-.49302652.2630265-.94860182.68999999-1.19511508s.95302653-.24651326 1.38000001 0c.4269735.24651326.69000001.70208856.69 1.19511508 0 .27614237.22385763.5.5.5s.5-.22385763.5-.5c0-1.3144377-1.0655623-2.38-2.38-2.38s-2.38 1.0655623-2.38 2.38v1.54c-.00946616.06967997-.00946616.14032003 0 .21h-1.43c-.55228475 0-1 .44771525-1 1v5.63c0 .5522847.44771525 1 1 1h7.56c.55228475 0 1-.4477153 1-1v-5.67c-.02148118-.53660392-.46296646-.96042979-1-.96zm-7.56 6.56v-5.56h7.56v5.6z"/><path d="m8.56 4.13h-5.18c.030631-.06592123.04763742-.1373482.05-.21v-1.54c-.00000001-.49302652.2630265-.94860182.68999999-1.19511508s.95302653-.24651326 1.38000001 0c.4269735.24651326.69000001.70208856.69 1.19511508 0 .27614237.22385763.5.5.5s.5-.22385763.5-.5c0-1.3144377-1.0655623-2.38-2.38-2.38s-2.38 1.0655623-2.38 2.38v1.54c-.00946616.06967997-.00946616.14032003 0 .21h-1.43c-.55228475 0-1 .44771525-1 1v5.63c0 .5522847.44771525 1 1 1h7.56c.55228475 0 1-.4477153 1-1v-5.67c-.02148118-.53660392-.46296646-.96042979-1-.96zm-7.56 6.56v-5.56h7.56v5.6z"/></g></svg>